<?xml version="1.0" encoding="UTF-8"?>
<svg xmlns="http://www.w3.org/2000/svg" width="320" height="240" viewBox="0 0 320 240" >

  <rect width="320" height="240" rx="28" fill="#FDFAF0"/>
  <circle cx="160" cy="105" r="72" fill="#E8F4EE"/>
  <g transform="translate(112 48)" fill="none" stroke="#01294A" stroke-width="4" stroke-linecap="round" stroke-linejoin="round">
    <path d="M16 8h64v92l-8-6-8 6-8-6-8 6-8-6-8 6-8-6-8 6V8Z" fill="#fff"/>
    <path d="M30 31h36M30 45h30"/>
    <circle cx="62" cy="70" r="18" fill="#5BAD8B" stroke="none"/><path d="m52 70 7 7 13-16" stroke="#fff" stroke-width="5"/>
  </g>
  <path d="m84 59 5 5M236 65l-5 5M86 142l-7 2M236 145l7 2" stroke="#F5B731" stroke-width="4" stroke-linecap="round"/>
  <circle cx="96" cy="47" r="5" fill="#7E5BAA"/><circle cx="226" cy="48" r="5" fill="#3E7BD1"/>
  <path d="M125 206h70" stroke="#5BAD8B" stroke-width="4" stroke-linecap="round"/>

</svg>
